<svg id="emaAX8GqQZn1" xmlns="http://www.w3.org/2000/svg" xmlns:xlink="http://www.w3.org/1999/xlink" viewBox="0 0 24 24" shape-rendering="geometricPrecision" text-rendering="geometricPrecision"><ellipse rx="8.681292" ry="8.681292" transform="matrix(1.340201 0 0 1.340201 12 12)" fill="#ffd6af" stroke-width="0"/><path d="M14.003,17.23c-.178.247-1.456.922-1.462-.396v-.464c.43-.208.731-.634.731-1.015c0-.526-.571-.762-1.272-.762s-1.271.236-1.271.762c0,.377.294.796.717,1.007v.472c-.008,1.227-1.18.829-1.392.453-.404-.716-1.249-.153-.94.423.29.541,1.001.918,1.73.918.446,0,.848-.146,1.149-.416.302.27.703.416,1.15.416.727,0,1.439-.377,1.729-.918.316-.584-.417-1.105-.869-.48ZM15,11.5c-.459,0-.833.374-.833.834c0,.459.374.833.833.833s.833-.374.833-.833c0-.46-.374-.834-.833-.834Zm0,2.667c-1.011,0-1.833-.823-1.833-1.833c0-1.012.822-1.834,1.833-1.834s1.833.822,1.833,1.834c0,1.01-.822,1.833-1.833,1.833ZM9,11.5c-.459,0-.833.374-.833.834c0,.459.374.833.833.833.46,0,.834-.374.834-.833c0-.46-.374-.834-.834-.834Zm0,2.667c-1.011,0-1.833-.823-1.833-1.833c0-1.012.822-1.834,1.833-1.834s1.834.822,1.834,1.834c0,1.01-.823,1.833-1.834,1.833Zm1.545-5.66c.772-.195,2.101-.198,2.909,0c.977-1.478,1.643-2.298,3.03-3.507c2.7,3.301,3.762,9.095,4.196,13.732C18.665,21.323,15.528,23,12,23c-3.56,0-6.721-1.708-8.733-4.339C3.614,13.943,4.504,8.043,7,5c1.469,1.16,2.426,2.15,3.545,3.507ZM12,0C5.377,0,0,5.376,0,12c0,6.623,5.377,12,12,12s12-5.377,12-12C24,5.376,18.623,0,12,0Z" clip-rule="evenodd" fill="#DB5375" fill-rule="evenodd"/></svg>
